# xmcd CD database file
#
# Track frame offsets:
#	150
#	14915
#	20387
#	30332
#	39855
#	45625
#	55047
#	64152
#	72665
#	80910
#	91332
#	104765
#	111962
#	122505
#	127625
#	134747
#	142535
#	149092
#
# Disc length: 2114 seconds
#
# Revision: 3
# Processed by: cddbd v1.5.2PL0 Copyright (c) Steve Scherf et al.
# Submitted via: CDex 1.51
#
DISCID=02084012
DTITLE=Weissberg and Mandell - Dueling Banjos
DYEAR=1973
DGENRE=Blues
TTITLE0=Dueling Banjos
TTITLE1=Little Maggie
TTITLE2=Shuckin'The One
TTITLE3=Pony Express
TTITLE4=Old Joe Clarck
TTITLE5=Eight More Miles To Louisville
TTITLE6=Farewell Blues
TTITLE7=Earl's Breakdown
TTITLE8=End Of A Dream
TTITLE9=Buffalo Gals
TTITLE10=Reuben'sTrain
TTITLE11=Riding The Waves
TTITLE12=Fire On The Mountain
TTITLE13=Eigth Of January
TTITLE14=Buggle Call Rag
TTITLE15=Hard Aint Hard
TTITLE16=Mountain Dew
TTITLE17=Rawhide
EXTD=YEAR: 1973
EXTT0=
EXTT1=
EXTT2=
EXTT3=
EXTT4=
EXTT5=
EXTT6=
EXTT7=
EXTT8=
EXTT9=
EXTT10=
EXTT11=
EXTT12=
EXTT13=
EXTT14=
EXTT15=
EXTT16=
EXTT17=
PLAYORDER=
